<svg width="24" height="24" viewBox="0 0 24 24" fill="none" id="Component_366_5" data-name="Component 366 – 5" xmlns="http://www.w3.org/2000/svg">
  <path d="M12.0784 8.47059H10.1961C9.85098 8.47059 9.56863 8.78824 9.56863 9.17647C9.56863 9.56471 9.85098 9.88235 10.1961 9.88235H12.0784C12.4235 9.88235 12.7059 9.56471 12.7059 9.17647C12.7059 8.78824 12.4235 8.47059 12.0784 8.47059Z" fill="#005AA5"/>
  <path d="M9.56863 14.8235C9.56863 15.2118 9.85098 15.5294 10.1961 15.5294H15.2157C15.5608 15.5294 15.8431 15.2118 15.8431 14.8235C15.8431 14.4353 15.5608 14.1176 15.2157 14.1176H10.1961C9.85098 14.1176 9.56863 14.4353 9.56863 14.8235Z" fill="#005AA5"/>
  <path d="M9.56863 12C9.56863 12.3882 9.85098 12.7059 10.1961 12.7059H15.2157C15.5608 12.7059 15.8431 12.3882 15.8431 12C15.8431 11.6118 15.5608 11.2941 15.2157 11.2941H10.1961C9.85098 11.2941 9.56863 11.6118 9.56863 12Z" fill="#005AA5"/>
  <path d="M14.5882 7.05882V9.17647C14.5882 9.56471 14.8706 9.88235 15.2157 9.88235H17.098L14.5882 7.05882Z" fill="#005AA5"/>
  <path fill-rule="evenodd" clip-rule="evenodd" d="M12 24C18.6274 24 24 18.6274 24 12C24 5.37258 18.6274 0 12 0C5.37258 0 0 5.37258 0 12C0 18.6274 5.37258 24 12 24ZM8.31373 5.64706H15.2157L18.3529 9.17647V16.9412C18.3529 17.7176 17.7882 18.3529 17.098 18.3529H8.31373C7.62353 18.3529 7.05882 17.7176 7.05882 16.9412V7.05882C7.05882 6.28235 7.62353 5.64706 8.31373 5.64706Z" fill="#005AA5"/>
</svg>
